<mxfile host="app.diagrams.net" modified="2023-01-31T14:45:18.415Z" agent="5.0 (Windows NT 10.0; Win64; x64) AppleWebKit/537.36 (KHTML, like Gecko) Chrome/108.0.0.0 Safari/537.36" etag="yCLTHiTykCcc4hFEfHM5" version="20.8.13" type="github">
  <diagram id="-KhWxun8ObMhiOvJqzjZ" name="第 1 页">
    <mxGraphModel dx="1434" dy="756" grid="1" gridSize="10" guides="1" tooltips="1" connect="1" arrows="1" fold="1" page="1" pageScale="1" pageWidth="827" pageHeight="1169" math="0" shadow="0">
      <root>
        <mxCell id="0" />
        <mxCell id="1" parent="0" />
        <mxCell id="u-hLE3L-y5ioJGdZaA26-1" value="OBU" style="rounded=1;whiteSpace=wrap;html=1;" parent="1" vertex="1">
          <mxGeometry x="80" y="80" width="80" height="30" as="geometry" />
        </mxCell>
        <mxCell id="u-hLE3L-y5ioJGdZaA26-3" value="RSU" style="rounded=1;whiteSpace=wrap;html=1;" parent="1" vertex="1">
          <mxGeometry x="200" y="80" width="80" height="30" as="geometry" />
        </mxCell>
        <mxCell id="u-hLE3L-y5ioJGdZaA26-4" value="SC" style="rounded=1;whiteSpace=wrap;html=1;" parent="1" vertex="1">
          <mxGeometry x="320" y="80" width="80" height="30" as="geometry" />
        </mxCell>
        <mxCell id="u-hLE3L-y5ioJGdZaA26-5" value="MC" style="rounded=1;whiteSpace=wrap;html=1;" parent="1" vertex="1">
          <mxGeometry x="440" y="80" width="80" height="30" as="geometry" />
        </mxCell>
        <mxCell id="u-hLE3L-y5ioJGdZaA26-6" value="" style="endArrow=none;html=1;rounded=0;entryX=0.5;entryY=1;entryDx=0;entryDy=0;" parent="1" target="u-hLE3L-y5ioJGdZaA26-1" edge="1">
          <mxGeometry width="50" height="50" relative="1" as="geometry">
            <mxPoint x="120" y="440" as="sourcePoint" />
            <mxPoint x="440" y="360" as="targetPoint" />
          </mxGeometry>
        </mxCell>
        <mxCell id="u-hLE3L-y5ioJGdZaA26-7" value="" style="endArrow=none;html=1;rounded=0;entryX=0.5;entryY=1;entryDx=0;entryDy=0;" parent="1" edge="1">
          <mxGeometry width="50" height="50" relative="1" as="geometry">
            <mxPoint x="240" y="440" as="sourcePoint" />
            <mxPoint x="239.5" y="110" as="targetPoint" />
          </mxGeometry>
        </mxCell>
        <mxCell id="u-hLE3L-y5ioJGdZaA26-8" value="" style="endArrow=none;html=1;rounded=0;entryX=0.5;entryY=1;entryDx=0;entryDy=0;" parent="1" edge="1">
          <mxGeometry width="50" height="50" relative="1" as="geometry">
            <mxPoint x="360" y="440" as="sourcePoint" />
            <mxPoint x="359.5" y="110" as="targetPoint" />
          </mxGeometry>
        </mxCell>
        <mxCell id="u-hLE3L-y5ioJGdZaA26-9" value="" style="endArrow=none;html=1;rounded=0;entryX=0.5;entryY=1;entryDx=0;entryDy=0;" parent="1" edge="1">
          <mxGeometry width="50" height="50" relative="1" as="geometry">
            <mxPoint x="480" y="440" as="sourcePoint" />
            <mxPoint x="479.5" y="110" as="targetPoint" />
          </mxGeometry>
        </mxCell>
        <mxCell id="u-hLE3L-y5ioJGdZaA26-10" value="" style="endArrow=classic;html=1;rounded=0;" parent="1" edge="1">
          <mxGeometry width="50" height="50" relative="1" as="geometry">
            <mxPoint x="120" y="160" as="sourcePoint" />
            <mxPoint x="240" y="160" as="targetPoint" />
          </mxGeometry>
        </mxCell>
        <mxCell id="u-hLE3L-y5ioJGdZaA26-12" value="1.车辆节点提交交易" style="edgeLabel;html=1;align=center;verticalAlign=middle;resizable=0;points=[];" parent="u-hLE3L-y5ioJGdZaA26-10" vertex="1" connectable="0">
          <mxGeometry x="0.4667" y="-1" relative="1" as="geometry">
            <mxPoint x="-28" y="-11" as="offset" />
          </mxGeometry>
        </mxCell>
        <mxCell id="u-hLE3L-y5ioJGdZaA26-13" value="3.验证车辆身份和交易数据" style="rounded=1;whiteSpace=wrap;html=1;" parent="1" vertex="1">
          <mxGeometry x="450" y="220" width="80" height="30" as="geometry" />
        </mxCell>
        <mxCell id="u-hLE3L-y5ioJGdZaA26-14" value="" style="endArrow=classic;html=1;rounded=0;" parent="1" edge="1">
          <mxGeometry width="50" height="50" relative="1" as="geometry">
            <mxPoint x="240" y="200" as="sourcePoint" />
            <mxPoint x="480" y="200" as="targetPoint" />
          </mxGeometry>
        </mxCell>
        <mxCell id="u-hLE3L-y5ioJGdZaA26-15" value="2.RSU提交交易至MC" style="edgeLabel;html=1;align=center;verticalAlign=middle;resizable=0;points=[];" parent="u-hLE3L-y5ioJGdZaA26-14" vertex="1" connectable="0">
          <mxGeometry x="0.4667" y="-1" relative="1" as="geometry">
            <mxPoint x="-56" y="-11" as="offset" />
          </mxGeometry>
        </mxCell>
        <mxCell id="u-hLE3L-y5ioJGdZaA26-21" value="" style="endArrow=classic;html=1;rounded=0;" parent="1" edge="1">
          <mxGeometry width="50" height="50" relative="1" as="geometry">
            <mxPoint x="480" y="280" as="sourcePoint" />
            <mxPoint x="240" y="280" as="targetPoint" />
          </mxGeometry>
        </mxCell>
        <mxCell id="u-hLE3L-y5ioJGdZaA26-22" value="4.返回验证结果" style="edgeLabel;html=1;align=center;verticalAlign=middle;resizable=0;points=[];" parent="u-hLE3L-y5ioJGdZaA26-21" vertex="1" connectable="0">
          <mxGeometry x="0.4667" y="-1" relative="1" as="geometry">
            <mxPoint x="56" y="-9" as="offset" />
          </mxGeometry>
        </mxCell>
        <mxCell id="u-hLE3L-y5ioJGdZaA26-23" value="" style="endArrow=classic;html=1;rounded=0;" parent="1" edge="1">
          <mxGeometry width="50" height="50" relative="1" as="geometry">
            <mxPoint x="360" y="360" as="sourcePoint" />
            <mxPoint x="120" y="360" as="targetPoint" />
          </mxGeometry>
        </mxCell>
        <mxCell id="u-hLE3L-y5ioJGdZaA26-24" value="6.返回交易结果" style="edgeLabel;html=1;align=center;verticalAlign=middle;resizable=0;points=[];" parent="u-hLE3L-y5ioJGdZaA26-23" vertex="1" connectable="0">
          <mxGeometry x="0.4667" y="-1" relative="1" as="geometry">
            <mxPoint x="56" y="-9" as="offset" />
          </mxGeometry>
        </mxCell>
        <mxCell id="0mVK_wUSeeb_6t9G6ki4-1" value="" style="endArrow=classic;html=1;rounded=0;" parent="1" edge="1">
          <mxGeometry width="50" height="50" relative="1" as="geometry">
            <mxPoint x="240" y="320" as="sourcePoint" />
            <mxPoint x="360" y="320" as="targetPoint" />
          </mxGeometry>
        </mxCell>
        <mxCell id="0mVK_wUSeeb_6t9G6ki4-2" value="5.转发交易数据调用&lt;br&gt;智能合约保存数据" style="edgeLabel;html=1;align=center;verticalAlign=middle;resizable=0;points=[];" parent="0mVK_wUSeeb_6t9G6ki4-1" vertex="1" connectable="0">
          <mxGeometry x="0.4667" y="-1" relative="1" as="geometry">
            <mxPoint x="-28" y="-21" as="offset" />
          </mxGeometry>
        </mxCell>
        <mxCell id="0mVK_wUSeeb_6t9G6ki4-3" value="" style="endArrow=classic;html=1;rounded=0;" parent="1" edge="1">
          <mxGeometry width="50" height="50" relative="1" as="geometry">
            <mxPoint x="360" y="400" as="sourcePoint" />
            <mxPoint x="480" y="400" as="targetPoint" />
          </mxGeometry>
        </mxCell>
        <mxCell id="0mVK_wUSeeb_6t9G6ki4-4" value="7.同步交易概要至MC" style="edgeLabel;html=1;align=center;verticalAlign=middle;resizable=0;points=[];" parent="0mVK_wUSeeb_6t9G6ki4-3" vertex="1" connectable="0">
          <mxGeometry x="0.4667" y="-1" relative="1" as="geometry">
            <mxPoint x="-28" y="-11" as="offset" />
          </mxGeometry>
        </mxCell>
      </root>
    </mxGraphModel>
  </diagram>
</mxfile>
